<svg width="56" height="61" viewBox="0 0 56 61" fill="none" xmlns="http://www.w3.org/2000/svg">
<path d="M53.6247 13.4908H47.5879C47.6107 13.041 47.6222 12.5856 47.6222 12.1257C47.6222 4.82996 44.8045 1.34544 44.4833 0.972171C44.1504 0.585358 43.7018 0.316122 43.204 0.204128C38.4136 -0.87258 34.2074 2.54139 31.1358 5.03447C30.924 5.20644 30.7161 5.37508 30.5136 5.53779C29.7324 5.23934 28.885 5.0758 28 5.0758C27.1118 5.0758 26.2613 5.24064 25.4777 5.54112C25.2441 5.35489 25.0035 5.1606 24.7575 4.96191C21.7141 2.5035 17.546 -0.863435 12.7957 0.204009C12.2978 0.315884 11.849 0.585359 11.5161 0.972289C11.195 1.34556 8.3778 4.82996 8.3778 12.1257C8.3778 12.5856 8.38932 13.041 8.41213 13.4908H2.37527C1.06341 13.4908 0 14.5542 0 15.866V25.6998C0 27.0116 1.06341 28.075 2.37527 28.075H4.42002V51.3079C4.42002 56.5468 8.68219 60.8089 13.9211 60.8089H42.0789C47.3178 60.8089 51.58 56.5468 51.58 51.3079V51.2852C51.58 49.9733 50.5166 48.9099 49.2047 48.9099C47.8929 48.9099 46.8295 49.9733 46.8295 51.2852V51.3079C46.8295 53.9273 44.6984 56.0584 42.0789 56.0584H30.3753V28.075H46.8295V39.4089C46.8295 40.7207 47.8929 41.7841 49.2047 41.7841C50.5166 41.7841 51.58 40.7207 51.58 39.4089V28.075H53.6247C54.9366 28.075 56 27.0116 56 25.6998V15.866C56 14.5542 54.9365 13.4908 53.6247 13.4908ZM42.8717 12.1257C42.8717 12.5884 42.8576 13.0441 42.8299 13.4908H34.922C35.0112 13.0442 35.0574 12.5872 35.0574 12.1259C35.0574 10.8813 34.7328 9.71101 34.1639 8.69487C36.3359 6.93231 38.9727 4.80181 41.3108 4.75597C41.9055 5.84812 42.8717 8.22303 42.8717 12.1257ZM30.3069 12.1259C30.3069 12.6274 30.148 13.1009 29.8584 13.4908H26.1417C25.8522 13.1009 25.6933 12.6272 25.6933 12.1259C25.6933 10.8579 26.7282 9.82633 28.0001 9.82633C29.272 9.82621 30.3069 10.8579 30.3069 12.1259ZM13.1283 12.1257C13.1283 8.22422 14.0936 5.84966 14.6883 4.75704C17.0062 4.80775 19.6233 6.92138 21.7724 8.65735C21.7919 8.67314 21.8114 8.68882 21.8307 8.70449C21.2651 9.71838 20.9425 10.8852 20.9425 12.1259C20.9425 12.5872 20.9887 13.0443 21.0779 13.4908H13.1701C13.1424 13.0441 13.1283 12.5883 13.1283 12.1257ZM4.75053 18.2413H25.6247V23.3245H4.75053V18.2413ZM25.6247 56.0584H13.9211C11.3016 56.0584 9.17055 53.9273 9.17055 51.3079V28.075H25.6247V56.0584ZM30.3753 23.3245V18.2413H51.2495V23.3245H30.3753Z" fill="#F2754E"/>
</svg>
