<svg width="77" height="19" viewBox="0 0 77 19" fill="none" xmlns="http://www.w3.org/2000/svg">
<path fill-rule="evenodd" clip-rule="evenodd" d="M67.6647 0.0470581L76.754 9.46809L67.6647 18.8858V0.0470581Z" fill="#CACACA"/>
<path fill-rule="evenodd" clip-rule="evenodd" d="M2.26587 11.573H2.13122C-0.538452 11.573 -0.538452 7.36652 2.13122 7.36652C3.25098 7.36652 4.22953 8.30894 4.22953 9.47138C4.22953 10.6305 3.38562 11.573 2.26587 11.573ZM11.8806 11.573H11.746C10.6263 11.573 9.71666 10.6305 9.71666 9.47138C9.71666 8.30894 10.6263 7.36652 11.746 7.36652C12.8658 7.36652 13.841 8.30894 13.841 9.47138C13.8443 10.6305 13.0037 11.573 11.8806 11.573ZM21.4987 11.573H21.3608C20.241 11.573 19.3314 10.6305 19.3314 9.47138C19.3314 8.30894 20.241 7.36652 21.3608 7.36652H21.4987C22.6184 7.36652 23.528 8.30894 23.528 9.47138C23.528 10.6305 22.6184 11.573 21.4987 11.573ZM31.1135 11.573H30.9788C29.8591 11.573 28.9495 10.6305 28.9495 9.47138C28.9495 8.30894 29.8591 7.36652 30.9788 7.36652H31.1135C32.2365 7.36652 33.1428 8.30894 33.1428 9.47138C33.1428 10.6305 32.2365 11.573 31.1135 11.573ZM40.7282 11.573H40.5936C39.4738 11.573 38.561 10.6305 38.561 9.47138C38.561 8.30894 39.4706 7.36652 40.5936 7.36652C41.7133 7.36652 42.6919 8.30894 42.6919 9.47138C42.6919 10.6305 41.848 11.573 40.7282 11.573ZM50.343 11.573H50.2084C49.0853 11.573 48.179 10.6305 48.179 9.47138C48.179 8.30894 49.0886 7.36652 50.2084 7.36652C51.3314 7.36652 52.3067 8.30894 52.3067 9.47138C52.3067 10.6305 51.4661 11.573 50.343 11.573ZM59.961 11.573H59.8232C58.7034 11.573 57.7938 10.6305 57.7938 9.47138C57.7938 8.30894 58.7034 7.36652 59.8232 7.36652H59.961C61.0808 7.36652 61.9904 8.30894 61.9904 9.47138C61.9904 10.6305 61.0808 11.573 59.961 11.573Z" fill="#CACACA"/>
</svg>
