<svg width="59" height="57" viewBox="0 0 59 57" fill="none" xmlns="http://www.w3.org/2000/svg">
<path d="M57.6312 32.0695L54.9879 35.5088C54.9418 35.8115 54.9493 36.4101 54.954 36.7864C54.9561 36.951 54.958 37.1117 54.958 37.2657V41.6166C54.958 44.4593 53.0254 46.782 49.9144 47.6779L45.5664 48.9302C45.1434 49.0519 44.7747 49.3166 44.528 49.6756L41.9791 53.3813C40.3105 55.8069 37.2023 56.8102 34.4207 55.8214L30.1454 54.3013C29.729 54.1535 29.2709 54.1535 28.8549 54.3013L24.5796 55.8212C21.798 56.81 18.6897 55.8068 17.0213 53.3811L14.4723 49.6753C14.2382 49.3351 13.8945 49.0795 13.499 48.9501L8.96955 47.9984C8.91435 47.9868 8.85973 47.9732 8.80557 47.9577C5.92285 47.1274 3.96904 44.5073 4.0421 41.5773V37.1103C4.0421 36.955 4.04533 36.7923 4.04878 36.625C4.0557 36.2937 4.06676 35.7524 4.01006 35.5309L1.36623 32.0662C-0.456215 29.7271 -0.455409 26.4679 1.36865 24.1297L4.01675 20.6807C4.06526 20.4711 4.05604 19.9411 4.04913 19.5476C4.04556 19.3459 4.0421 19.1397 4.0421 18.9295V14.4547C3.97584 11.7084 5.90487 9.43677 9.08571 8.52076L13.4338 7.26851C13.8567 7.1467 14.2254 6.88212 14.4723 6.52317L17.021 2.81755C18.2596 1.01677 20.2912 -6.10352e-05 22.3942 5.34058e-05C23.124 0.000167847 23.8628 0.122665 24.5795 0.377449L28.8546 1.89729C29.271 2.04513 29.7291 2.04513 30.1451 1.89729L34.4204 0.377449C35.1372 0.122551 35.8757 5.34058e-05 36.6057 5.34058e-05C38.7085 5.34058e-05 40.7403 1.017 41.9787 2.81755L44.5277 6.52328C44.7746 6.882 45.1433 7.1467 45.5661 7.26851L49.9142 8.52076C52.7414 9.3349 55.0507 12.569 54.9567 15.5827C54.9171 16.8548 53.8493 17.8572 52.5815 17.8144C51.3094 17.7747 50.3102 16.7114 50.3499 15.4391C50.3775 14.5515 49.4339 13.1788 48.6385 12.9498L44.2905 11.6976C42.8447 11.2811 41.5803 10.3712 40.7302 9.13531L38.1813 5.42958C37.6941 4.72112 36.7825 4.42946 35.9643 4.7202L31.6889 6.24003C30.2775 6.74177 28.7228 6.74188 27.3109 6.24003L23.0357 4.7202C22.2174 4.42934 21.306 4.721 20.8186 5.42958L18.2698 9.1352C17.4199 10.3711 16.1554 11.2811 14.7095 11.6974L10.3615 12.9497C10.1834 13.0011 8.62292 13.476 8.65012 14.3513C8.65093 14.3752 8.65127 14.3991 8.65127 14.4231V18.9294C8.65127 19.1121 8.65461 19.2918 8.65761 19.4672C8.67858 20.6677 8.70451 22.1608 7.70335 23.4477L5.01895 26.9437C5.01445 26.9496 5.00984 26.9555 5.00535 26.9613C4.48045 27.6313 4.48045 28.5673 5.00535 29.2373C5.01123 29.2449 5.01722 29.2526 5.0231 29.2603L7.70577 32.776C8.71165 34.0719 8.6787 35.6648 8.65692 36.7202C8.65415 36.8546 8.65127 36.9855 8.65127 37.1103V41.6094C8.65127 41.6332 8.65093 41.6572 8.65012 41.6811C8.62523 42.484 9.19576 43.2421 10.0155 43.5084L14.5455 44.4602C14.6007 44.4718 14.6554 44.4854 14.7095 44.5009C16.1553 44.9174 17.4197 45.8273 18.2698 47.0632L20.8187 50.7689C21.3059 51.4775 22.2172 51.7693 23.0357 51.4783L27.3111 49.9585C28.7225 49.4567 30.2772 49.4567 31.6891 49.9585L35.9643 51.4783C36.7827 51.7692 37.694 51.4774 38.1813 50.7689L40.7302 47.0633C41.5801 45.8273 42.8446 44.9173 44.2905 44.5009L48.6385 43.2487C49.2773 43.0648 50.3487 42.6081 50.3487 41.6165V37.2656C50.3487 37.1302 50.347 36.9889 50.3452 36.8443C50.3282 35.5027 50.3074 33.8459 51.3578 32.6678L53.9817 29.2539C53.986 29.2483 53.9904 29.2427 53.9946 29.2371C54.5195 28.5671 54.5195 27.6312 53.9946 26.9611C53.2097 25.9592 53.3859 24.5105 54.3878 23.7258C55.3899 22.941 56.8382 23.1169 57.6232 24.1191C59.4563 26.4588 59.4589 29.7263 57.6312 32.0695Z" fill="#F2754E"/>
<path d="M22.3904 14.533C22.7389 14.3446 23.1142 14.2553 23.4842 14.2553C24.3034 14.2553 25.0967 14.6933 25.5135 15.4645L37.9704 38.5099C38.5757 39.6294 38.1587 41.0277 37.0391 41.633C35.9193 42.2384 34.521 41.8211 33.916 40.7015L21.4591 17.6561C20.8537 16.5366 21.2708 15.1382 22.3904 14.533Z" fill="#F2754E"/>
<path d="M25.6974 36.1489C25.6974 39.3257 23.1129 41.9103 19.9361 41.9103C16.7593 41.9103 14.1747 39.3258 14.1747 36.1489C14.1747 32.972 16.7592 30.3876 19.9361 30.3876C23.1129 30.3876 25.6974 32.9721 25.6974 36.1489ZM19.9361 34.9967C19.3007 34.9967 18.7839 35.5136 18.7839 36.1489C18.7839 36.7842 19.3008 37.3012 19.9361 37.3012C20.5715 37.3012 21.0884 36.7842 21.0884 36.1489C21.0884 35.5136 20.5714 34.9967 19.9361 34.9967Z" fill="#F2754E"/>
<path d="M38.9485 14.2559C42.1253 14.2559 44.7099 16.8404 44.7099 20.0173C44.7099 23.1942 42.1254 25.7786 38.9485 25.7786C35.7717 25.7786 33.1872 23.1941 33.1872 20.0173C33.1872 16.8405 35.7717 14.2559 38.9485 14.2559ZM38.9485 21.1694C39.5839 21.1694 40.1008 20.6525 40.1008 20.0172C40.1008 19.3819 39.5838 18.8649 38.9485 18.8649C38.3131 18.8649 37.7963 19.3819 37.7963 20.0172C37.7963 20.6525 38.3132 21.1694 38.9485 21.1694Z" fill="#F2754E"/>
</svg>
