<svg id="Layer_1" viewBox="0 0 64 64" xmlns="http://www.w3.org/2000/svg" data-name="Layer 1"><path d="m32 27.58a9.23 9.23 0 1 0 -9.23-9.23 9.24 9.24 0 0 0 9.23 9.23zm0-8.22a3.83 3.83 0 0 1 -1-7.52v-1a1 1 0 0 1 2 0v1a3.84 3.84 0 0 1 2.83 3.69 1 1 0 1 1 -2 0 1.83 1.83 0 1 0 -1.83 1.83 3.82 3.82 0 0 1 1 7.51v1a1 1 0 0 1 -2 0v-1a3.83 3.83 0 0 1 -2.83-3.68 1 1 0 1 1 2 0 1.83 1.83 0 0 0 1.83 1.81 1.83 1.83 0 1 0 0-3.65z"/><path d="m52.29 4h-40.58v56h40.58zm-20.29 3.13a11.23 11.23 0 1 1 -11.23 11.22 11.24 11.24 0 0 1 11.23-11.22zm17.58 48.74a1 1 0 0 1 -1 1h-33.16a1 1 0 0 1 -1-1v-24.06a1 1 0 0 1 1-1h33.16a1 1 0 0 1 1 1z"/><path d="m16.42 54.87h31.16v-22.06h-31.16zm23.68-2.68h-16.2a1 1 0 0 1 0-2h16.2a1 1 0 0 1 0 2zm-17.94-16.71h19.68a1 1 0 0 1 0 2h-19.68a1 1 0 0 1 0-2zm17.19 5.91a1 1 0 0 1 -1 1h-12.7a1 1 0 1 1 0-2h12.7a1 1 0 0 1 1 1zm-18.61 3.9h22.52a1 1 0 0 1 0 2h-22.52a1 1 0 0 1 0-2z"/></svg>