<?xml version="1.0" encoding="iso-8859-1"?>
<!-- Generator: Adobe Illustrator 21.0.0, SVG Export Plug-In . SVG Version: 6.00 Build 0)  -->
<svg xmlns="http://www.w3.org/2000/svg" xmlns:xlink="http://www.w3.org/1999/xlink" version="1.1" id="Capa_1" x="0px" y="0px" viewBox="0 0 512 512" style="enable-background:new 0 0 512 512;" xml:space="preserve" width="512" height="512">
<g>
	<path d="M0,388.667v69.594C0,471.371,10.629,482,23.74,482c13.111,0,23.74-10.629,23.74-23.74V215.54H10c-5.523,0-10,4.477-10,10   L0,388.667L0,388.667z"/>
	<path d="M502,0H87.48c-5.523,0-10,4.477-10,10v205.54v222.856v34.926C77.48,494.683,60.135,512,38.74,512h420.146   C488.22,512,512,488.258,512,458.97V10C512,4.477,507.523,0,502,0z M289.65,60.07c2.88,0,5.281,0.958,6,3.475l18.242,61.463   l9.481-40.497c0.72-3.235,4.92-4.912,9-4.912c4.081,0,8.281,1.677,9.001,4.912l9.481,40.497l18.241-61.463   c0.72-2.516,3.121-3.475,6.001-3.475c5.4,0,12.121,3.354,12.121,7.428c0,0.599-0.12,1.198-0.24,1.558l-23.882,73.085   c-1.44,4.193-6.84,6.23-12.361,6.23c-5.4,0-11.161-2.037-12.121-6.23l-6.241-28.396l-6.24,28.396   c-0.96,4.193-6.721,6.23-12.121,6.23c-5.521,0-11.041-2.037-12.361-6.23l-23.882-73.085c-0.12-0.359-0.24-0.959-0.24-1.558   C277.529,63.425,284.25,60.07,289.65,60.07z M214.169,65.821c0-3.834,4.081-5.751,8.161-5.751h42.724   c3.961,0,5.641,4.193,5.641,8.027c0,4.433-2.04,8.267-5.641,8.267H232.89v20.248h18.001c3.601,0,5.641,3.475,5.641,7.309   c0,3.235-1.68,7.069-5.641,7.069H232.89v20.368h32.163c3.601,0,5.641,3.834,5.641,8.267c0,3.834-1.68,8.027-5.641,8.027h-42.724   c-4.08,0-8.161-1.917-8.161-5.751V65.821z M135.087,65.821c0-3.954,4.681-5.751,9.361-5.751c6.721,0,9.241,0.599,13.801,9.345   l19.442,37.022V65.702c0-3.954,4.68-5.631,9.36-5.631c4.681,0,9.361,1.677,9.361,5.631v76.2c0,3.834-4.68,5.751-9.361,5.751   c-4.32,0-8.161-0.839-10.441-5.032l-22.802-41.455v40.736c0,3.834-4.68,5.751-9.361,5.751c-4.68,0-9.361-1.917-9.361-5.751V65.821z    M245.561,450.598h-97.619c-8.284,0-15-6.716-15-15c0-8.284,6.716-15,15-15h97.619c8.284,0,15,6.716,15,15   C260.561,443.882,253.845,450.598,245.561,450.598z M245.561,390.69h-97.619c-8.284,0-15-6.716-15-15c0-8.284,6.716-15,15-15   h97.619c8.284,0,15,6.716,15,15C260.561,383.975,253.845,390.69,245.561,390.69z M245.561,330.783h-97.619c-8.284,0-15-6.716-15-15   c0-8.284,6.716-15,15-15h97.619c8.284,0,15,6.716,15,15C260.561,324.067,253.845,330.783,245.561,330.783z M452.013,435.598   c0,8.284-6.716,15-15,15H305.562c-8.284,0-15-6.716-15-15V315.783c0-8.284,6.716-15,15-15h131.451c8.284,0,15,6.716,15,15V435.598z    M437.013,270.876H147.942c-8.284,0-15-6.716-15-15s6.716-15,15-15h289.071c8.284,0,15,6.716,15,15   S445.297,270.876,437.013,270.876z M437.013,210.968H147.942c-8.284,0-15-6.716-15-15c0-8.284,6.716-15,15-15h289.071   c8.284,0,15,6.716,15,15C452.013,204.252,445.297,210.968,437.013,210.968z M423.575,148.851c-15.721,0-28.922-7.668-28.922-15.576   c0-4.074,3.6-10.064,8.161-10.064c5.641,0,9.241,8.866,20.402,8.866c5.521,0,11.641-2.157,11.641-7.908   c0-14.497-38.043-11.981-38.043-40.017c0-17.972,15.721-24.801,30.723-24.801c6.36,0,23.882,1.198,23.882,10.543   c0,3.235-2.16,9.824-7.44,9.824c-4.32,0-6.601-4.553-16.442-4.553c-8.521,0-12.001,3.475-12.001,7.189   c0,11.981,38.043,9.705,38.043,39.897C453.578,139.505,440.977,148.851,423.575,148.851z"/>
</g>















</svg>
