<svg fill="none" height="512" viewBox="0 0 24 24" width="512" xmlns="http://www.w3.org/2000/svg"><g fill="rgb(0,0,0)"><path d="m14.844 20h-8.344c-1.379 0-2.5-1.121-2.5-2.5s1.121-2.5 2.5-2.5h7c1.93 0 3.5-1.57 3.5-3.5s-1.57-3.5-3.5-3.5h-4.861c-.36725.71988-.82203 1.39164-1.354 2h6.215c.827 0 1.5.673 1.5 1.5s-.673 1.5-1.5 1.5h-7c-2.481 0-4.5 2.019-4.5 4.5s2.019 4.5 4.5 4.5h9.593c-.4907-.6172-.9097-1.2882-1.249-2zm-9.844-18c-1.654 0-3 1.346-3 3 0 3.188 3 5 3 5s3-1.813 3-5c0-1.654-1.346-3-3-3zm0 4.5c-.19705-.00007-.39215-.03894-.57418-.11441-.18202-.07547-.3474-.18605-.48669-.32543s-.24976-.30483-.3251-.48691c-.07535-.18207-.1141-.3772-.11403-.57425s.03894-.39215.11441-.57418c.07547-.18202.18605-.3474.32543-.48669s.30483-.24976.48691-.3251c.18207-.07535.3772-.1141.57425-.11403.39796.00013.77956.15835 1.06087.43984.2813.28149.43926.6632.43913 1.06116s-.15835.77956-.43984 1.06087c-.28149.2813-.6632.43926-1.06116.43913z"/><path d="m19 14c-1.654 0-3 1.346-3 3 0 3.188 3 5 3 5s3-1.813 3-5c0-1.654-1.346-3-3-3zm0 4.5c-.197-.0001-.3922-.0389-.5742-.1144s-.3474-.1861-.4867-.3254c-.1393-.1394-.2497-.3049-.3251-.4869-.0753-.1821-.1141-.3773-.114-.5743s.0389-.3922.1144-.5742.1861-.3474.3254-.4867c.1394-.1393.3049-.2497.4869-.3251.1821-.0753.3773-.1141.5743-.114.398.0001.7796.1583 1.0609.4398s.4392.6632.4391 1.0612-.1583.7796-.4398 1.0609-.6632.4392-1.0612.4391z"/></g></svg>