<svg width="7" height="12" viewBox="0 0 7 12" fill="none" xmlns="http://www.w3.org/2000/svg">
<path d="M0.140657 0.141213C0.0504833 0.233533 0 0.357464 0 0.486516C0 0.615568 0.0504833 0.7395 0.140657 0.83182L5.17857 6L0.140657 11.1671C0.0504833 11.2595 0 11.3834 0 11.5125C0 11.6415 0.0504833 11.7654 0.140657 11.8578C0.184488 11.9028 0.236894 11.9386 0.29478 11.963C0.352666 11.9874 0.414859 12 0.47769 12C0.540521 12 0.602715 11.9874 0.660601 11.963C0.718487 11.9386 0.770892 11.9028 0.814723 11.8578L6.1721 6.36081C6.26619 6.26428 6.31885 6.13481 6.31885 6C6.31885 5.8652 6.26619 5.73572 6.1721 5.63919L0.814723 0.142247C0.770892 0.0972295 0.718487 0.0614494 0.660601 0.0370182C0.602715 0.012587 0.540521 0 0.47769 0C0.414859 0 0.352666 0.012587 0.29478 0.0370182C0.236894 0.0614494 0.184488 0.0972295 0.140657 0.142247V0.141213Z" fill="#637280"/>
</svg>
